<svg width="80" height="80" viewBox="0 0 80 80" fill="none" xmlns="http://www.w3.org/2000/svg">
<path d="M18.3409 63.6988C15.9641 63.6988 13.9348 62.8549 12.2532 61.1673C10.5715 59.4795 9.73074 57.4302 9.73074 55.0193H5.64099V21.282C5.64099 20.0011 6.08999 18.9116 6.98799 18.0136C7.88594 17.1157 8.97541 16.6667 10.2564 16.6667H55.109V28.9808H62.1923L74.359 45.282V55.0193H69.3397C69.3397 57.4302 68.4954 59.4795 66.8067 61.1673C65.118 62.8549 63.0674 63.6988 60.655 63.6988C58.2603 63.6988 56.2266 62.8549 54.5539 61.1673C52.8812 59.4795 52.0448 57.4302 52.0448 55.0193H27.0257C27.0257 57.4423 26.1724 59.4947 24.4659 61.1764C22.7594 62.858 20.7177 63.6988 18.3409 63.6988ZM18.3782 61.1346C20.0748 61.1346 21.5128 60.5449 22.6923 59.3654C23.8718 58.1859 24.4615 56.7479 24.4615 55.0514C24.4615 53.3547 23.8718 51.9167 22.6923 50.7372C21.5128 49.5577 20.0748 48.968 18.3782 48.968C16.6816 48.968 15.2436 49.5577 14.0641 50.7372C12.8846 51.9167 12.2949 53.3547 12.2949 55.0514C12.2949 56.7479 12.8846 58.1859 14.0641 59.3654C15.2436 60.5449 16.6816 61.1346 18.3782 61.1346ZM8.20507 52.4551H9.97432C10.4487 50.7842 11.4734 49.3547 13.0482 48.1667C14.6232 46.9786 16.3869 46.3846 18.3395 46.3846C20.2065 46.3846 21.9479 46.9712 23.5637 48.1443C25.1793 49.3173 26.2244 50.7543 26.6987 52.4551H52.5448V19.2308H10.2564C9.74358 19.2308 9.27349 19.4444 8.84616 19.8718C8.41882 20.2992 8.20516 20.7692 8.20516 21.282L8.20507 52.4551ZM60.6923 61.1346C62.3889 61.1346 63.8269 60.5449 65.0064 59.3654C66.1859 58.1859 66.7757 56.7479 66.7757 55.0514C66.7757 53.3547 66.1859 51.9167 65.0064 50.7372C63.8269 49.5577 62.3889 48.968 60.6923 48.968C58.9957 48.968 57.5577 49.5577 56.3782 50.7372C55.1987 51.9167 54.609 53.3547 54.609 55.0514C54.609 56.7479 55.1987 58.1859 56.3782 59.3654C57.5577 60.5449 58.9957 61.1346 60.6923 61.1346ZM55.109 45.5449H71.4423L60.7821 31.5449H55.109V45.5449Z" fill="white"/>
</svg>
