<svg id="Layer_1" data-name="Layer 1" xmlns="http://www.w3.org/2000/svg" viewBox="0 0 207.81 238.16"><defs><style>.cls-1{fill:#fff;}.cls-2{fill:#656666;}.cls-3{fill:#9a1c1f;}</style></defs><rect class="cls-1" width="207.81" height="209.12"/><polygon class="cls-2" points="103.91 14.58 1.65 14.58 1.65 2.66 112.18 2.66 103.91 14.58"/><rect class="cls-2" x="1.65" y="2.66" width="11.93" height="26.32"/><rect class="cls-3" x="1.65" y="140.31" width="11.93" height="64.77"/><rect class="cls-3" x="1.65" y="64.45" width="11.93" height="69.04"/><rect class="cls-2" x="194.23" y="60.6" width="11.93" height="74.88"/><rect class="cls-2" x="126.05" y="87.86" width="34.85" height="88.66"/><polygon class="cls-3" points="20.23 65.29 20.23 26.86 79.97 26.86 60.42 65.29 20.23 65.29"/><rect class="cls-3" x="194.23" y="2.66" width="11.93" height="33.22"/><rect class="cls-3" x="150.8" y="2.66" width="43.87" height="11.93"/><rect class="cls-3" x="194.23" y="140.18" width="11.93" height="64.77"/><rect class="cls-3" x="13.58" y="193.16" width="192.54" height="11.93"/><path class="cls-2" d="M293.7,351.32l97.16.09V313.75H347.35s6-24.06,11.49-29.94c0,0-21.71,14.21-34.78,45.84,0,0-4.95-25.82-.29-53.67Z" transform="translate(-272.47 -174.89)"/><path class="cls-3" d="M378.93,203.87h15.59S330.86,241,324.78,321.32C324.78,321.32,310.23,247.8,378.93,203.87Z" transform="translate(-272.47 -174.89)"/><path class="cls-3" d="M326.4,319.83s18.11-100.55,136.77-109.07v24.73S379.92,219,326.4,319.83Z" transform="translate(-272.47 -174.89)"/><path class="cls-2" d="M288.76,408.21c-.17.91-.83,3.53-1.06,4.47H274.53l-.19-.5c3.17-4.61,6.56-9.66,9.78-14.52h-4.19c-1.94,0-2.34.22-2.86,1a10.85,10.85,0,0,0-1,2.12l-.87,0c.14-1.44.41-3.74.47-4.83h.79c.29.59.62.6,1.36.6h10l.18.43c-3.17,4.72-6.42,9.58-9.63,14.52.8.07,1.83.08,3.44.08,3,0,3.62-.09,4.33-.8A8.71,8.71,0,0,0,287.9,408Z" transform="translate(-272.47 -174.89)"/><path class="cls-2" d="M299.67,412.68v-.84c1.58-.22,1.65-.48,1.3-1.5-.27-.83-.7-2-1.12-3.18h-5c-.32.89-.67,1.84-1,2.7-.53,1.58,0,1.78,2,2v.84h-6v-.84c1.56-.2,2-.41,2.81-2.54l5.15-12.89,1.05-.2c1.58,4.29,3.28,8.8,4.87,13,.87,2.26,1.1,2.44,2.76,2.64v.84Zm-2.28-12.33c-.75,1.9-1.49,3.77-2.16,5.64h4.19Z" transform="translate(-272.47 -174.89)"/><path class="cls-2" d="M307.43,412.68v-.84c1.94-.19,2.15-.33,2.15-2.42v-9.58c0-2.1-.23-2.27-2.15-2.44v-.84h7.31v.84c-1.93.19-2.16.34-2.16,2.44v9.58c0,2.09.21,2.21,2.16,2.42v.84Z" transform="translate(-272.47 -174.89)"/><path class="cls-2" d="M324.33,396.56c3.29,0,5.58.68,7.15,2.16a7.1,7.1,0,0,1,2.18,5.37,7.91,7.91,0,0,1-3.1,6.55,11.51,11.51,0,0,1-7.12,2H317v-.84c2-.17,2.15-.37,2.15-2.42v-9.59c0-2.1-.28-2.26-2.15-2.43v-.84Zm-2.21,12.67c0,1.8.57,2.37,2.39,2.37,3.74,0,5.8-2.58,5.8-7.15,0-2.48-.74-4.53-2.17-5.64a5.92,5.92,0,0,0-4.08-1.25,2.69,2.69,0,0,0-1.65.34c-.22.2-.29.57-.29,1.38Z" transform="translate(-272.47 -174.89)"/><path class="cls-2" d="M344.12,412.68v-.84c1.58-.22,1.65-.48,1.3-1.5-.27-.83-.71-2-1.13-3.18h-5c-.31.89-.67,1.84-.95,2.7-.53,1.58,0,1.78,2,2v.84h-6v-.84c1.56-.2,1.95-.41,2.81-2.54l5.15-12.89,1.05-.2c1.57,4.29,3.27,8.8,4.86,13,.88,2.26,1.1,2.44,2.77,2.64v.84Zm-2.29-12.33c-.74,1.9-1.49,3.77-2.15,5.64h4.18Z" transform="translate(-272.47 -174.89)"/><path class="cls-2" d="M369.1,397.4c-1.54.19-2,.48-2.1,1.61-.05.91-.12,1.82-.12,4v9.89h-1.23l-10.44-12.6v5.82c0,2.18.06,3.2.13,3.92.08,1.15.63,1.65,2.45,1.77v.84h-6.11v-.84c1.46-.13,2.07-.5,2.2-1.68a37.2,37.2,0,0,0,.14-4v-6a2.68,2.68,0,0,0-.51-1.88c-.45-.62-1-.72-2.12-.83v-.84h4.44l9.82,11.5v-5c0-2.21,0-3.12-.11-4-.07-1.09-.53-1.55-2.56-1.67v-.84h6.12Z" transform="translate(-272.47 -174.89)"/><path class="cls-2" d="M395.12,400.71a7.85,7.85,0,0,0-1-2.3c-.43-.57-.64-.76-2.07-.76h-1.9v11.8c0,2,.23,2.22,2.49,2.39v.84h-7.88v-.84c2.18-.17,2.4-.35,2.4-2.39v-11.8h-1.78c-1.38,0-1.77.2-2.23.84a10.15,10.15,0,0,0-.95,2.24h-.87c.17-1.71.33-3.51.39-4.77h.68c.38.58.66.6,1.39.6h9.88a1.49,1.49,0,0,0,1.38-.6h.68c0,1.08.11,3.12.24,4.68Z" transform="translate(-272.47 -174.89)"/><path class="cls-2" d="M406.45,396.21a8,8,0,0,1,8.22,8.22c0,5.3-3.71,8.62-8.36,8.62a8.19,8.19,0,0,1-8.44-8.36A8.28,8.28,0,0,1,406.45,396.21Zm-.42,1c-2.62,0-4.71,2.43-4.71,6.91s2,7.86,5.37,7.86c2.58,0,4.57-2.26,4.57-6.89C411.26,400.11,409,397.24,406,397.24Z" transform="translate(-272.47 -174.89)"/><path class="cls-2" d="M430.92,397.4c-1.64.18-2.12.5-3,2s-1.79,3.12-3,5.5a2.6,2.6,0,0,0-.31,1.37v3.07c0,2.12.21,2.22,2.34,2.46v.84h-7.58v-.84c2.06-.27,2.23-.33,2.23-2.46v-3a2.2,2.2,0,0,0-.35-1.24c-.77-1.52-1.66-3.14-3.1-5.65-.93-1.64-1.26-1.95-2.78-2.11v-.84h6.85v.84c-1.7.23-1.64.55-1.21,1.41.9,1.72,2,3.79,3,5.62.8-1.49,2.06-4,2.76-5.44.5-1.08.35-1.38-1.5-1.59v-.84h5.72Z" transform="translate(-272.47 -174.89)"/><path class="cls-2" d="M439.76,396.21a8,8,0,0,1,8.23,8.22c0,5.3-3.72,8.62-8.36,8.62a8.19,8.19,0,0,1-8.44-8.36A8.27,8.27,0,0,1,439.76,396.21Zm-.42,1c-2.61,0-4.7,2.43-4.7,6.91s2,7.86,5.37,7.86c2.58,0,4.56-2.26,4.56-6.89C444.57,400.11,442.35,397.24,439.34,397.24Z" transform="translate(-272.47 -174.89)"/><path class="cls-2" d="M463.44,400.71a8.14,8.14,0,0,0-1-2.3c-.43-.57-.64-.76-2.07-.76h-1.9v11.8c0,2,.23,2.22,2.49,2.39v.84h-7.88v-.84c2.18-.17,2.39-.35,2.39-2.39v-11.8h-1.77c-1.38,0-1.78.2-2.23.84a9.69,9.69,0,0,0-.95,2.24h-.87c.16-1.71.33-3.51.39-4.77h.68c.37.58.66.6,1.39.6H462a1.5,1.5,0,0,0,1.38-.6h.67c0,1.08.12,3.12.24,4.68Z" transform="translate(-272.47 -174.89)"/><path class="cls-2" d="M473,412.68v-.84c1.57-.22,1.64-.48,1.3-1.5-.28-.83-.71-2-1.13-3.18h-5c-.32.89-.67,1.84-.95,2.7-.53,1.58,0,1.78,2,2v.84h-6v-.84c1.57-.2,2-.41,2.82-2.54l5.14-12.89,1.06-.2c1.57,4.29,3.27,8.8,4.86,13,.88,2.26,1.1,2.44,2.76,2.64v.84Zm-2.29-12.33c-.75,1.9-1.49,3.77-2.16,5.64h4.19Z" transform="translate(-272.47 -174.89)"/></svg>