<svg width="34" height="34" viewBox="0 0 34 34" fill="none" xmlns="http://www.w3.org/2000/svg">
<g clip-path="url(#clip0_169_16018)">
<path d="M17 19.9884C18.6469 19.9884 19.9949 18.647 19.9949 16.9935C19.9949 16.3427 19.7824 15.7384 19.4304 15.247C18.8859 14.4966 18.0027 13.9985 17.0066 13.9985C16.0105 13.9985 15.1273 14.4899 14.5828 15.247C14.2308 15.7384 14.0183 16.3427 14.0183 16.9935C14.0117 18.647 15.3531 19.9884 17 19.9884Z" fill="#9A1611"/>
<path d="M23.5344 13.341V10.8309V10.459H23.1625L20.6523 10.4656L20.6656 13.3477L23.5344 13.341Z" fill="#9A1611"/>
<path d="M21.6484 16.9999C21.6484 19.5632 19.5633 21.6483 17 21.6483C14.4367 21.6483 12.3516 19.5632 12.3516 16.9999C12.3516 16.3823 12.4777 15.7913 12.6969 15.2534H10.1602V22.2128C10.1602 23.1093 10.8906 23.8397 11.7871 23.8397H22.2129C23.1094 23.8397 23.8398 23.1093 23.8398 22.2128V15.2534H21.3031C21.5289 15.7913 21.6484 16.3823 21.6484 16.9999Z" fill="#9A1611"/>
<path d="M17 0C7.61016 0 0 7.61016 0 17C0 26.3898 7.61016 34 17 34C26.3898 34 34 26.3898 34 17C34 7.61016 26.3898 0 17 0ZM25.5 15.2535V22.2129C25.5 24.0258 24.0258 25.5 22.2129 25.5H11.7871C9.97422 25.5 8.5 24.0258 8.5 22.2129V15.2535V11.7805C8.5 9.96758 9.97422 8.49336 11.7871 8.49336H22.2129C24.0258 8.49336 25.5 9.96758 25.5 11.7805V15.2535Z" fill="#9A1611"/>
</g>
<defs>
<clipPath id="clip0_169_16018">
<rect width="34" height="34" fill="white"/>
</clipPath>
</defs>
</svg>
