<svg width="58" height="58" viewBox="0 0 58 58" fill="none" xmlns="http://www.w3.org/2000/svg">
<path d="M29 29L39.875 18.125" stroke="white" stroke-width="2" stroke-miterlimit="10" stroke-linecap="round" stroke-linejoin="round"/>
<path d="M54.375 10.875H47.125V3.625L39.875 10.875V18.125H47.125L54.375 10.875Z" stroke="white" stroke-width="2" stroke-miterlimit="10" stroke-linecap="round" stroke-linejoin="round"/>
<path d="M29 39.875C35.0061 39.875 39.875 35.0061 39.875 29C39.875 22.9939 35.0061 18.125 29 18.125C22.9939 18.125 18.125 22.9939 18.125 29C18.125 35.0061 22.9939 39.875 29 39.875Z" stroke="white" stroke-width="2" stroke-miterlimit="10" stroke-linecap="round" stroke-linejoin="round"/>
<path d="M48.9375 16.3125C51.2937 19.9375 52.5625 24.2875 52.5625 29C52.5625 42.05 42.05 52.5625 29 52.5625C15.95 52.5625 5.4375 42.05 5.4375 29C5.4375 15.95 15.95 5.4375 29 5.4375C33.7125 5.4375 38.0625 6.70625 41.6875 9.0625" stroke="white" stroke-width="2" stroke-miterlimit="10" stroke-linecap="round" stroke-linejoin="round"/>
</svg>
