<svg width="80" height="80" viewBox="0 0 80 80" fill="none" xmlns="http://www.w3.org/2000/svg">
<path d="M53.7885 45.141C55.1987 45.141 56.4134 44.6314 57.4327 43.6122C58.4519 42.593 58.9616 41.3964 58.9616 40.0224C58.9616 38.563 58.4519 37.3376 57.4327 36.3462C56.4134 35.3547 55.1987 34.859 53.7885 34.859C52.3782 34.859 51.1635 35.3547 50.1442 36.3462C49.125 37.3376 48.6154 38.563 48.6154 40.0224C48.6154 41.3964 49.125 42.593 50.1442 43.6122C51.1635 44.6314 52.3782 45.141 53.7885 45.141ZM15.8974 55.3911V64.1026V15.8974V55.3911ZM17.9487 66.6667C16.6709 66.6667 15.5822 66.2177 14.6827 65.3198C13.7831 64.4218 13.3333 63.3323 13.3333 62.0513V17.9487C13.3333 16.6709 13.7831 15.5822 14.6827 14.6827C15.5822 13.7831 16.6709 13.3333 17.9487 13.3333H62.0513C63.3323 13.3333 64.4217 13.7831 65.3197 14.6827C66.2177 15.5822 66.6667 16.6709 66.6667 17.9487V29.0513H64.1026V17.9487C64.1026 17.3504 63.9103 16.859 63.5257 16.4743C63.141 16.0897 62.6496 15.8974 62.0513 15.8974H17.9487C17.3504 15.8974 16.8589 16.0897 16.4743 16.4743C16.0897 16.859 15.8974 17.3504 15.8974 17.9487V62.0513C15.8974 62.6496 16.0897 63.1411 16.4743 63.5257C16.8589 63.9103 17.3504 64.1026 17.9487 64.1026H62.0513C62.6496 64.1026 63.141 63.9103 63.5257 63.5257C63.9103 63.1411 64.1026 62.6496 64.1026 62.0513V50.968H66.6667V62.0513C66.6667 63.3323 66.2177 64.4218 65.3197 65.3198C64.4217 66.2177 63.3323 66.6667 62.0513 66.6667H17.9487ZM46.0512 52.8269C44.547 52.8269 43.3141 52.3568 42.3526 51.4167C41.391 50.4765 40.9102 49.2393 40.9102 47.7052V32.3141C40.9102 30.7671 41.391 29.5267 42.3526 28.5929C43.3141 27.6591 44.547 27.1923 46.0512 27.1923H64.8974C66.4445 27.1923 67.6987 27.6591 68.6602 28.5929C69.6218 29.5267 70.1026 30.7671 70.1026 32.3141V47.7052C70.1026 49.2393 69.6218 50.4765 68.6602 51.4167C67.6987 52.3568 66.4445 52.8269 64.8974 52.8269H46.0512ZM65.4872 50.2628C66.0427 50.2628 66.5235 50.0705 66.9295 49.6859C67.3355 49.3013 67.5385 48.8099 67.5385 48.2116V31.8077C67.5385 31.2521 67.3355 30.7714 66.9295 30.3654C66.5235 29.9594 66.0427 29.7564 65.4872 29.7564H45.5257C44.9701 29.7564 44.4893 29.9594 44.0833 30.3654C43.6773 30.7714 43.4743 31.2521 43.4743 31.8077V48.2116C43.4743 48.8099 43.6773 49.3013 44.0833 49.6859C44.4893 50.0705 44.9701 50.2628 45.5257 50.2628H65.4872Z" fill="white"/>
</svg>
