<svg width="48" height="48" viewBox="0 0 48 48" fill="none" xmlns="http://www.w3.org/2000/svg">
<path d="M13 46C12.2 46 11.5 45.7 10.9 45.1C10.3 44.5 10 43.8 10 43V5C10 4.2 10.3 3.5 10.9 2.9C11.5 2.3 12.2 2 13 2H35C35.8 2 36.5 2.3 37.1 2.9C37.7 3.5 38 4.2 38 5V43C38 43.8 37.7 44.5 37.1 45.1C36.5 45.7 35.8 46 35 46H13ZM13 38.5V43H35V38.5H13ZM24.0087 42.25C24.4362 42.25 24.7917 42.1054 25.075 41.8162C25.3583 41.5271 25.5 41.1687 25.5 40.7413C25.5 40.3138 25.3554 39.9583 25.0663 39.675C24.7771 39.3917 24.4187 39.25 23.9913 39.25C23.5638 39.25 23.2083 39.3946 22.925 39.6838C22.6417 39.9729 22.5 40.3313 22.5 40.7588C22.5 41.1862 22.6446 41.5417 22.9337 41.825C23.2229 42.1083 23.5813 42.25 24.0087 42.25ZM13 35.5H35V9.5H13V35.5ZM13 6.5H35V5H13V6.5Z" fill="#9A1611"/>
</svg>
