<svg width="80" height="80" viewBox="0 0 80 80" fill="none" xmlns="http://www.w3.org/2000/svg">
<path d="M50.3225 10.3225H47.7418V12.9032H50.3225V10.3225Z" fill="white"/>
<path d="M40 54.1935C34.3083 54.1935 29.6775 58.8244 29.6775 64.5161C29.6775 70.2077 34.3083 74.8386 40 74.8386C45.6917 74.8386 50.3225 70.2077 50.3225 64.5161C50.3225 58.8244 45.6917 54.1935 40 54.1935ZM40 72.2579C35.7304 72.2579 32.2582 68.7857 32.2582 64.5161C32.2582 60.2464 35.7304 56.7742 40 56.7742C44.2696 56.7742 47.7418 60.2464 47.7418 64.5161C47.7418 68.7857 44.2696 72.2579 40 72.2579Z" fill="white"/>
<path d="M47.7415 41.2903V33.5483H53.3199L55.9006 40H64.5161V4.2672L63.6799 3.95234C63.249 3.79084 52.9872 0 40 0C27.0128 0 16.7509 3.79084 16.3201 3.95234L15.4839 4.2672V40H24.0993L26.68 33.5483H32.2581V41.2903C32.2581 44.9717 32.2581 47.231 27.6929 54.1936H19.3549V74.8386H29.0697C31.9625 78.2181 35.729 80 40 80C44.271 80 48.0374 78.2181 50.93 74.8386H60.6447V54.1936H52.3068C47.7415 47.231 47.7415 44.9717 47.7415 41.2903ZM40.0002 2.5807C50.4377 2.5807 59.2517 5.19608 61.9356 6.08133V10.3225H52.9032V12.9032H61.9356V15.4839H18.0649V12.9032H45.1614V10.3225H18.0649V6.08133C20.7485 5.19608 29.5628 2.5807 40.0002 2.5807ZM24.9328 30.9676L22.3521 37.4193H18.0649V18.0646H61.9356V37.4193H57.6478L55.0671 30.9676H24.9328ZM58.064 63.2257H52.9032V65.8064H58.064V72.2582H49.7014L49.3131 72.7446C46.8422 75.8463 43.7079 77.4193 39.9997 77.4193C36.2915 77.4193 33.1572 75.8466 30.6863 72.7446L30.298 72.2582H21.9354V65.8064H27.0968V63.2257H21.9354V56.7743H29.0775L29.4607 56.2001C34.8388 48.1328 34.8388 45.2619 34.8388 41.2903V33.5483H45.1608V41.2903C45.1608 45.2619 45.1608 48.1331 50.539 56.2001L50.9221 56.7743H58.064V63.2257Z" fill="white"/>
<path d="M40 36.129H37.4193V38.7097H40V36.129Z" fill="white"/>
<path d="M40 41.2903H37.4193V43.871H40V41.2903Z" fill="white"/>
</svg>
