<svg width="58" height="58" viewBox="0 0 58 58" fill="none" xmlns="http://www.w3.org/2000/svg">
<path d="M29.0125 37.2026C31.616 37.2026 33.8333 36.2829 35.6644 34.4434C37.4954 32.6039 38.411 30.3825 38.411 27.779C38.411 25.1756 37.4912 22.9583 35.6518 21.1272C33.8123 19.2962 31.5908 18.3806 28.9874 18.3806C26.3839 18.3806 24.1667 19.3003 22.3356 21.1398C20.5045 22.9793 19.589 25.2007 19.589 27.8042C19.589 30.4077 20.5087 32.6249 22.3482 34.456C24.1876 36.2871 26.4091 37.2026 29.0125 37.2026ZM28.9817 34.4886C27.1163 34.4886 25.5369 33.8357 24.2433 32.53C22.9498 31.2242 22.303 29.6386 22.303 27.7733C22.303 25.908 22.9559 24.3285 24.2616 23.0349C25.5674 21.7414 27.1529 21.0947 29.0183 21.0947C30.8836 21.0947 32.4631 21.7475 33.7566 23.0533C35.0502 24.359 35.6969 25.9446 35.6969 27.8099C35.6969 29.6753 35.0441 31.2547 33.7383 32.5483C32.4326 33.8418 30.847 34.4886 28.9817 34.4886ZM29.0033 44.7082C23.4614 44.7082 18.4302 43.1568 13.9098 40.0538C9.38941 36.9509 5.99214 32.8635 3.71802 27.7916C5.99214 22.7198 9.3883 18.6323 13.9065 15.5294C18.4247 12.4265 23.4547 10.875 28.9967 10.875C34.5386 10.875 39.5698 12.4265 44.0901 15.5294C48.6105 18.6323 52.0078 22.7198 54.2819 27.7916C52.0078 32.8635 48.6117 36.9509 44.0935 40.0538C39.5753 43.1568 34.5452 44.7082 29.0033 44.7082ZM28.9898 41.9663C33.7927 41.9663 38.1996 40.682 42.2103 38.1136C46.221 35.5451 49.2783 32.1044 51.382 27.7916C49.2783 23.4788 46.2244 20.0381 42.2205 17.4697C38.2165 14.9012 33.8131 13.617 29.0102 13.617C24.2072 13.617 19.8004 14.9012 15.7896 17.4697C11.7789 20.0381 8.70932 23.4788 6.5808 27.7916C8.70932 32.1044 11.7755 35.5451 15.7795 38.1136C19.7834 40.682 24.1868 41.9663 28.9898 41.9663Z" fill="white"/>
</svg>
