<svg width="34" height="34" viewBox="0 0 34 34" fill="none" xmlns="http://www.w3.org/2000/svg">
<g clip-path="url(#clip0_169_16024)">
<path d="M14.7356 20.2736L20.3004 17.0064L14.7356 13.7393V20.2736Z" fill="#9A1611"/>
<path d="M17 0C7.61016 0 0 7.61016 0 17C0 26.3898 7.61016 34 17 34C26.3898 34 34 26.3898 34 17C34 7.61016 26.3898 0 17 0ZM25.5 20.0414C25.5 22.9699 22.5715 22.9699 22.5715 22.9699H11.4285C8.5 22.9699 8.5 20.0414 8.5 20.0414V13.9652C8.5 11.0367 11.4285 11.0367 11.4285 11.0367H22.5715C25.5 11.0367 25.5 13.9652 25.5 13.9652V20.0414Z" fill="#9A1611"/>
</g>
<defs>
<clipPath id="clip0_169_16024">
<rect width="34" height="34" fill="white"/>
</clipPath>
</defs>
</svg>
